HIERARCHY
ROOT Hips
{
	OFFSET -0.001795 -0.223333 0.028219
	CHANNELS 6 Xposition Yposition Zposition Zrotation Yrotation Xrotation 
	JOINT LeftUpLeg
	{
		OFFSET 0.069520 -0.091406 -0.006815
		CHANNELS 3 Zrotation Yrotation Xrotation
		JOINT LeftLeg
		{
			OFFSET 0.034277 -0.375199 -0.004496
			CHANNELS 3 Zrotation Yrotation Xrotation
			JOINT LeftFoot
			{
				OFFSET -0.013596 -0.397961 -0.043693
				CHANNELS 3 Zrotation Yrotation Xrotation
				JOINT LeftToe
				{
					OFFSET 0.026358 -0.055791 0.119288
					CHANNELS 3 Zrotation Yrotation Xrotation
					End Site
					{
						OFFSET 0.000000 0.000000 0.000000
					}
				}
			}
		}
	}
	JOINT RightUpLeg
	{
		OFFSET -0.067670 -0.090522 -0.004320
		CHANNELS 3 Zrotation Yrotation Xrotation
		JOINT RightLeg
		{
			OFFSET -0.038290 -0.382569 -0.008850
			CHANNELS 3 Zrotation Yrotation Xrotation
			JOINT RightFoot
			{
				OFFSET 0.015774 -0.398415 -0.042312
				CHANNELS 3 Zrotation Yrotation Xrotation
				JOINT RightToe
				{
					OFFSET -0.025372 -0.048144 0.123348
					CHANNELS 3 Zrotation Yrotation Xrotation
					End Site
					{
						OFFSET 0.000000 0.000000 0.000000
					}
				}
			}
		}
	}
	JOINT Spine
	{
		OFFSET -0.002533 0.108963 -0.026696
		CHANNELS 3 Zrotation Yrotation Xrotation
		JOINT Spine1
		{
			OFFSET 0.005487 0.135180 0.001092
			CHANNELS 3 Zrotation Yrotation Xrotation
			JOINT Spine2
			{
				OFFSET 0.001457 0.052922 0.025425
				CHANNELS 3 Zrotation Yrotation Xrotation
				JOINT Neck
				{
					OFFSET -0.002778 0.213870 -0.042857
					CHANNELS 3 Zrotation Yrotation Xrotation
					JOINT Head
					{
						OFFSET 0.005152 0.064970 0.051349
						CHANNELS 3 Zrotation Yrotation Xrotation
						End Site
						{
							OFFSET 0.000000 0.000000 0.000000
						}
					}
				}
				JOINT LeftShoulder
				{
					OFFSET 0.078845 0.121749 -0.034090
					CHANNELS 3 Zrotation Yrotation Xrotation
					JOINT LeftArm
					{
						OFFSET 0.090977 0.030469 -0.008868
						CHANNELS 3 Zrotation Yrotation Xrotation
						JOINT LeftForeArm
						{
							OFFSET 0.259612 -0.012772 -0.027456
							CHANNELS 3 Zrotation Yrotation Xrotation
							JOINT LeftHand
							{
								OFFSET 0.249234 0.008986 -0.001171
								CHANNELS 3 Zrotation Yrotation Xrotation
								End Site
								{
									OFFSET 0.000000 0.000000 0.000000
								}
							}
						}
					}
				}
				JOINT RightShoulder
				{
					OFFSET -0.081759 0.118833 -0.038615
					CHANNELS 3 Zrotation Yrotation Xrotation
					JOINT RightArm
					{
						OFFSET -0.096012 0.032551 -0.009143
						CHANNELS 3 Zrotation Yrotation Xrotation
						JOINT RightForeArm
						{
							OFFSET -0.253742 -0.013329 -0.021401
							CHANNELS 3 Zrotation Yrotation Xrotation
							JOINT RightHand
							{
								OFFSET -0.255298 0.007772 -0.005559
								CHANNELS 3 Zrotation Yrotation Xrotation
								End Site
								{
									OFFSET 0.000000 0.000000 0.000000
								}
							}
						}
					}
				}
			}
		}
	}
}
MOTION
Frames: 13
Frame Time: 0.050000
0.044777 0.892321 -0.075525 0.816312 -4.652228 6.131363 9.812442 -0.027775 -23.703401 -9.751296 3.265221 28.609884 14.531768 26.735798 13.434980 0.000000 0.000000 0.000000 -11.524275 1.059283 -36.683908 -0.891912 2.500862 36.564389 12.484546 16.687527 16.068388 0.000000 0.000000 0.000000 5.085029 -1.190797 13.122410 8.092127 -3.768266 0.247549 -7.671044 3.836374 11.951928 16.288164 -15.139204 2.949880 0.000000 0.000000 0.000000 24.375873 -10.281553 3.239261 -33.872613 -55.803031 10.707299 116.322094 -4.276054 -5.245025 0.000000 0.000000 0.000000 -23.846888 -2.147542 0.612906 56.998246 47.197583 19.507655 -129.265361 20.790441 -30.597420 0.000000 0.000000 0.000000 
0.046661 0.893972 -0.075660 0.509483 -7.309594 5.806040 10.007055 0.166076 -21.791388 -9.976932 3.512430 26.837588 15.841992 28.365644 13.923036 0.000000 0.000000 0.000000 -10.972522 1.574623 -36.431773 -1.124299 2.811844 35.154884 13.905221 18.207434 17.413462 0.000000 0.000000 0.000000 5.551129 -1.167014 12.612145 7.863831 -3.686022 0.918911 -7.750874 2.829432 11.850360 15.794643 -14.629336 3.137119 0.000000 0.000000 0.000000 24.630339 -11.193495 2.864317 -34.241998 -54.207822 11.152821 116.083156 -4.068884 -3.575395 0.000000 0.000000 0.000000 -23.539787 -1.582193 1.202026 56.071050 47.705163 18.384892 -128.417603 20.861555 -31.881346 0.000000 0.000000 0.000000 
0.048719 0.896060 -0.075288 0.248654 -9.640960 5.637593 10.071910 0.276085 -19.961702 -10.150087 3.626671 24.834131 17.042562 29.844128 14.473403 0.000000 0.000000 0.000000 -9.780495 2.162582 -35.953431 -2.545824 3.514987 33.646268 14.834358 19.588899 17.757802 0.000000 0.000000 0.000000 5.815303 -1.105660 11.838489 8.085244 -3.827199 1.907788 -8.036895 0.829981 11.447467 14.366533 -12.998871 2.721115 0.000000 0.000000 0.000000 25.243029 -11.523974 2.294824 -36.331902 -53.620146 12.967562 116.739726 -4.195585 -1.981683 0.000000 0.000000 0.000000 -23.732682 -0.857349 2.038069 55.852662 48.263808 17.329985 -127.660972 21.352718 -34.521202 0.000000 0.000000 0.000000 
0.051012 0.898665 -0.074532 -0.146248 -13.580253 5.242285 9.760314 0.357968 -17.246803 -9.761904 3.599654 22.349854 19.238033 32.381575 15.927877 0.000000 0.000000 0.000000 -8.453838 2.953753 -35.693727 -3.408635 4.036212 31.932607 16.653953 20.779455 20.045989 0.000000 0.000000 0.000000 6.557644 -1.089593 11.326932 7.272942 -3.396908 2.455451 -8.353618 -0.847838 11.837085 13.508961 -12.332893 3.665234 0.000000 0.000000 0.000000 25.712252 -12.951520 1.691586 -36.982488 -53.222042 14.325623 117.143735 -3.538884 1.126318 0.000000 0.000000 0.000000 -23.157063 -0.290970 2.836959 54.400699 49.085809 15.557594 -126.801788 22.494409 -38.410973 0.000000 0.000000 0.000000 
0.053450 0.900870 -0.073757 -0.375632 -17.121544 5.189656 9.671434 0.441478 -15.218812 -10.103243 3.762356 20.106070 21.336696 34.565088 17.771530 0.000000 0.000000 0.000000 -7.060888 3.649072 -35.371951 -4.880602 4.664095 30.338748 17.667997 22.262714 20.319776 0.000000 0.000000 0.000000 6.570287 -1.000953 10.773475 7.215096 -3.295225 2.680252 -8.961061 -3.739674 12.400461 11.481847 -10.109411 2.214823 0.000000 0.000000 0.000000 28.021477 -13.715038 0.600198 -39.264741 -53.838922 17.490909 117.431742 -1.018073 7.555002 0.000000 0.000000 0.000000 -22.827415 -0.115695 3.811365 54.588750 50.722710 14.354116 -124.929919 24.243487 -42.795380 0.000000 0.000000 0.000000 
0.055781 0.904198 -0.072983 -1.062800 -21.516454 5.344193 9.445381 0.521020 -13.049679 -9.674533 3.657433 17.766048 24.224696 37.129271 20.848985 0.000000 0.000000 0.000000 -5.228241 4.597359 -35.561524 -5.306562 5.031157 29.484549 17.785168 21.290092 21.092487 0.000000 0.000000 0.000000 7.551663 -1.008962 10.418792 6.518631 -2.858242 2.441761 -9.440385 -7.998223 13.128101 8.935209 -7.708141 0.627628 0.000000 0.000000 0.000000 29.329440 -15.715284 -0.522064 -38.879436 -52.448370 18.863046 117.366719 2.340873 16.033305 0.000000 0.000000 0.000000 -21.957723 0.703126 5.104722 54.982389 53.596825 12.829959 -124.286838 27.822072 -51.582033 0.000000 0.000000 0.000000 
0.057552 0.907604 -0.071791 -1.912539 -25.221361 6.057713 9.463453 0.606252 -11.512235 -9.392593 3.489658 15.482334 26.920422 39.140396 24.042970 0.000000 0.000000 0.000000 -3.164849 5.474954 -35.615313 -6.196024 5.379920 28.329017 17.529298 20.425625 20.979768 0.000000 0.000000 0.000000 7.967309 -0.988511 10.189399 6.744342 -2.852678 2.132911 -10.138158 -11.898180 13.400800 5.757449 -5.087072 -1.010145 0.000000 0.000000 0.000000 31.016613 -17.927841 -1.334000 -37.382082 -51.561100 19.573032 117.121139 5.554684 23.414352 0.000000 0.000000 0.000000 -21.312810 0.349154 6.046894 60.979922 55.771950 13.309664 -126.961385 32.883782 -63.924647 0.000000 0.000000 0.000000 
0.058426 0.910996 -0.069547 -3.001316 -29.278279 6.480945 9.559278 0.697887 -9.301394 -9.061208 3.296820 13.171184 30.014210 41.131576 27.859397 0.000000 0.000000 0.000000 -1.321903 6.165368 -35.060921 -6.295043 5.384578 27.070310 17.974269 20.304304 21.370023 0.000000 0.000000 0.000000 8.764161 -1.000888 10.449120 6.152830 -2.494288 1.879560 -10.086816 -15.456250 12.642014 3.046004 -2.786408 -0.339653 0.000000 0.000000 0.000000 30.459780 -20.570079 -1.198399 -35.109969 -50.788525 19.372190 116.409004 7.077294 27.524199 0.000000 0.000000 0.000000 -19.874863 0.108530 6.640024 64.557621 55.332136 11.755553 -130.100694 36.798888 -75.577267 0.000000 0.000000 0.000000 
0.058800 0.913052 -0.066555 -3.650014 -32.195310 6.902065 9.407466 0.729924 -7.862553 -8.871907 3.174152 11.636646 32.415276 42.457632 30.908914 0.000000 0.000000 0.000000 0.332348 6.511444 -34.045983 -7.435364 5.461856 25.217921 18.427994 21.066097 21.073909 0.000000 0.000000 0.000000 8.961339 -0.938000 9.832944 6.526380 -2.562182 1.871148 -11.141120 -18.445709 12.634709 0.649872 -1.027992 -1.535842 0.000000 0.000000 0.000000 30.831006 -22.060100 -1.282770 -33.831886 -50.265608 19.530188 115.614501 8.101765 30.410694 0.000000 0.000000 0.000000 -17.755601 -1.104259 6.442757 67.870493 52.676971 9.651447 -134.912790 40.561975 -88.981963 0.000000 0.000000 0.000000 
0.059154 0.914530 -0.063779 -4.175583 -34.812038 6.942020 9.124735 0.741828 -6.356691 -8.636097 3.077766 10.516447 34.615117 43.570432 33.725493 0.000000 0.000000 0.000000 1.435440 6.859634 -33.621238 -7.817805 5.572249 24.638663 19.484400 21.428266 22.313626 0.000000 0.000000 0.000000 9.104320 -0.917564 10.220765 6.592140 -2.533065 1.429193 -11.382891 -20.638118 12.736063 -1.752776 0.799940 -1.976609 0.000000 0.000000 0.000000 30.440188 -23.191274 -1.027796 -31.824215 -49.518796 18.816232 115.045089 9.436573 33.423004 0.000000 0.000000 0.000000 -16.392392 -1.440640 6.283762 66.648707 49.290056 6.280403 -136.397869 41.646782 -94.629383 0.000000 0.000000 0.000000 
0.059776 0.914650 -0.062361 -4.094380 -36.714875 6.741373 8.891348 0.768803 -5.987182 -9.075166 3.395857 10.811198 36.101846 44.076425 35.850595 0.000000 0.000000 0.000000 2.465712 7.299578 -33.712197 -9.557442 6.377969 24.890891 20.718519 23.069214 23.056252 0.000000 0.000000 0.000000 9.038298 -0.901828 10.857051 6.896251 -2.644541 0.437788 -12.514975 -22.493390 13.708743 -2.935087 1.180049 -3.928621 0.000000 0.000000 0.000000 30.816433 -23.644458 -1.176481 -31.143076 -48.201873 18.469722 115.884526 10.021175 36.147466 0.000000 0.000000 0.000000 -14.990350 -1.805722 5.897733 65.097883 46.700578 3.993582 -136.299611 41.777810 -96.664383 0.000000 0.000000 0.000000 
0.060595 0.914672 -0.062401 -4.106527 -38.246295 6.397500 8.796066 0.809806 -5.830585 -9.364316 3.741685 11.592192 37.213642 44.314441 37.635520 0.000000 0.000000 0.000000 3.367948 7.627439 -33.654481 -10.770462 7.047731 25.261829 21.529494 24.180580 23.500127 0.000000 0.000000 0.000000 8.730612 -0.875886 11.909131 7.030092 -2.660406 0.583415 -12.297249 -23.962300 13.111248 -4.780811 2.146281 -5.659719 0.000000 0.000000 0.000000 30.702281 -24.161868 -0.929167 -30.594020 -46.790269 17.798931 116.330756 9.191568 36.254864 0.000000 0.000000 0.000000 -14.647871 -2.283307 5.849125 64.255097 45.467519 2.783426 -135.626662 42.340679 -97.892155 0.000000 0.000000 0.000000 
0.061173 0.914887 -0.063268 -4.159248 -38.658055 6.787313 8.955858 0.873466 -6.570978 -9.621655 3.987146 12.184744 37.470946 44.117356 38.329597 0.000000 0.000000 0.000000 3.928088 8.178731 -34.550515 -11.600848 7.731559 26.155656 21.463172 23.954893 23.666950 0.000000 0.000000 0.000000 8.775847 -0.888440 12.424682 7.300944 -2.771552 -0.153394 -13.130108 -24.773318 13.815850 -5.071102 2.070256 -6.474391 0.000000 0.000000 0.000000 31.279022 -23.811697 -1.279513 -31.766743 -45.152882 17.862329 118.070484 7.799610 36.130242 0.000000 0.000000 0.000000 -13.811034 -3.556383 5.239192 64.180188 43.807729 1.965844 -137.542195 42.471808 -101.079794 0.000000 0.000000 0.000000 
